# AST/ASF file generated using VICON BodyLanguage
# -----------------------------------------------
:version 1.10
:name VICON
:units
  mass 1.0
  length 0.45
  angle deg
:documentation
   .ast/.asf automatically generated from VICON data using
   VICON BodyBuilder and BodyLanguage model FoxedUp or BRILLIANT.MOD
:root
   order TX TY TZ RX RY RZ
   axis XYZ
   position 0 0 0  
   orientation 0 0 0 
:bonedata
  begin
     id 1 
     name lhipjoint
     direction 0.621036 -0.695554 0.361275 
     length 2.46325 
     axis 0 0 0  XYZ
  end
  begin
     id 2 
     name lfemur
     direction 0.34202 -0.939693 0  
     length 6.54784  
     axis 0 0 20  XYZ
    dof rx ry rz
    limits (-160.0 20.0)
           (-70.0 70.0)
           (-60.0 70.0)
  end
  begin
     id 3 
     name ltibia
     direction 0.34202 -0.939693 0   
     length 7.84737   
     axis 0 0 20   XYZ
    dof rx
    limits (-10.0 170.0)
  end
  begin
     id 4 
     name lfoot
     direction 0.0790693 -0.217241 0.97291   
     length 2.59747   
     axis -90 7.62852e-016 20   XYZ
    dof rx rz
    limits (-45.0 90.0)
           (-70.0 20.0)
  end
  begin
     id 5 
     name ltoes
     direction 1.53572e-011 -4.21898e-011 1   
     length 1.29919   
     axis -90 7.62852e-016 20   XYZ
    dof rx
    limits (-90.0 20.0)
  end
  begin
     id 6 
     name rhipjoint
     direction -0.602353 -0.708375 0.367935   
     length 2.41867  
     axis 0 0 0  XYZ 
  end
  begin
     id 7 
     name rfemur
     direction -0.34202 -0.939693 0   
     length 6.92065   
     axis 0 0 -20   XYZ
    dof rx ry rz
    limits (-160.0 20.0)
           (-70.0 70.0)
           (-70.0 60.0)
  end
  begin
     id 8 
     name rtibia
     direction -0.34202 -0.939693 0   
     length 7.88883   
     axis 0 0 -20   XYZ
    dof rx
    limits (-10.0 170.0)
 end
 begin
     id 9 
     name rfoot
     direction -0.0768692 -0.211196 0.974416   
     length 2.43714  
     axis -90 -7.62852e-016 -20   XYZ
    dof rx rz
    limits (-45.0 90.0)
           (-20.0 70.0)
  end
  begin
     id 10 
     name rtoes
     direction -1.53575e-011 -4.21933e-011 1   
     length 1.22113   
     axis -90 -7.62852e-016 -20   XYZ
    dof rx
    limits (-90.0 20.0)
  end
  begin
     id 11 
     name lowerback
     direction 0.0197937 0.98943 -0.143655   
     length 2.16931   
     axis 0 0 0   XYZ
    dof rx ry rz
    limits (-20.0 45.0)
           (-30.0 30.0)
           (-30.0 30.0)
  end
  begin
     id 12 
     name upperback
     direction -0.00183968 0.999975 0.00684288   
     length 2.17221   
     axis 0 0 0   XYZ
    dof rx ry rz
    limits (-20.0 45.0)
           (-30.0 30.0)
           (-30.0 30.0)
  end
  begin
     id 13 
     name thorax
     direction -0.00950244 0.997208 0.0740685   
     length 2.22549   
     axis 0 0 0   XYZ
    dof rx ry rz
    limits (-20.0 45.0)
           (-30.0 30.0)
           (-30.0 30.0)
  end
  begin
     id 14 
     name lowerneck
     direction 0.0218238 0.996215 0.0841425   
     length 1.77269   
     axis 0 0 0   XYZ
    dof rx ry rz
    limits (-20.0 45.0)
           (-30.0 30.0)
           (-30.0 30.0)
  end
  begin
     id 15 
     name upperneck
     direction -0.00430652 0.994214 -0.107332   
     length 1.76534   
     axis 0 0 0   XYZ
    dof rx ry rz
    limits (-20.0 45.0)
           (-30.0 30.0)
           (-30.0 30.0)
  end
  begin
     id 16
     name head
     direction -0.00328946 0.998959 -0.0454998  
     length 1.82634  
     axis 0 0 0   XYZ
    dof rx ry rz
    limits (-20.0 45.0)
           (-30.0 30.0)
           (-30.0 30.0)
  end
  begin
     id 17 
     name lclavicle
     direction 0.970962 0.239191 0.00450212  
     length 3.84872  
     axis 0 0 0   XYZ
    dof ry rz
    limits (-20.0 10.0)
           (0.0 20.0)
  end
  begin
     id 18 
     name lhumerus
     direction 1 -4.48966e-011 5.74696e-028   
     length 5.22771   
     axis 180 -30 -90   XYZ
    dof rx ry rz
    limits (-60.0 90.0)
           (-90.0 90.0)
           (-90.0 90.0)
  end
  begin
     id 19
     name lradius
     direction 1 -4.4896e-011 4.25109e-027   
     length 3.45251   
     axis 180 -30 -90   XYZ
    dof rx
    limits (-10.0 170.0)
  end
  begin
     id 20
     name lwrist
     direction 1 -4.48971e-011 1.15382e-027   
     length 1.72626   
     axis -5.52449e-016 90 90   XYZ
    dof ry
    limits (-180.0 0.0)
 end
  begin
     id 21 
     name lhand
     direction 1 -4.49034e-011 2.30765e-027   
     length 0.552119   
     axis -1.47248e-015 90 90   XYZ
    dof rx rz
    limits (-90.0 90.0)
           (-45.0 45.0)
  end
  begin
     id 22 
     name lfingers
     direction 1 -4.48951e-011 4.61529e-027   
     length 0.445133   
     axis -2.94495e-015 90 90   XYZ
    dof rx
    limits (0.0 90.0)
  end
  begin
     id 23
     name lthumb
     direction 0.707107 -6.34991e-011 0.707107   
     length 0.639124   
     axis -90 45 2.85299e-015   XYZ
    dof rx rz
    limits (-45.0 45.0)
           (-45.0 45.0)
  end
  begin
     id 24 
     name rclavicle
     direction -0.97424 0.222511 -0.0366699   
     length 3.73439  
     axis 0 0 0   XYZ 
    dof ry rz
    limits (-10.0 20.0)
           (-20.0 0.0)
  end
  begin
     id 25 
     name rhumerus
     direction -1 -4.48956e-011 -4.97258e-028  
     length 5.2398   
     axis 180 30 90   XYZ
    dof rx ry rz
    limits (-90.0 60.0)
           (-90.0 90.0)
           (-90.0 90.0)
  end
  begin
     id 26 
     name rradius
     direction -1 -4.4897e-011 -1.72611e-027   
     length 3.48042   
     axis 180 30 90   XYZ
    dof rx
    limits (-10.0 170.0)
  end
  begin
     id 27 
     name rwrist
     direction -1 -4.48976e-011 1.15382e-027   
     length 1.74021   
     axis -5.52449e-016 -90 -90   XYZ
    dof ry
    limits (-180.0 0.0)
  end
  begin
     id 28
     name rhand
     direction -1 -4.48963e-011 2.30765e-027   
     length 0.618713   
     axis -1.47248e-015 -90 -90   XYZ
    dof rx rz
    limits (-90.0 90.0)
           (-45.0 45.0)
  end
  begin
     id 29
     name rfingers
     direction -1 -4.4888e-011 4.61529e-027   
     length 0.498823   
     axis -2.94495e-015 -90 -90   XYZ
    dof rx
    limits (0.0 90.0)
  end
  begin
     id 30
     name rthumb
     direction -0.707107 -6.34968e-011 0.707107   
     length 0.716213   
     axis -90 -45 -2.85299e-015   XYZ
    dof rx rz
    limits (-45.0 45.0)
           (-45.0 45.0)
  end
:hierarchy
  begin
    root lhipjoint rhipjoint lowerback
    lhipjoint lfemur
    lfemur ltibia
    ltibia lfoot
    lfoot ltoes
    rhipjoint rfemur
    rfemur rtibia
    rtibia rfoot
    rfoot rtoes
    lowerback upperback
    upperback thorax
    thorax lowerneck lclavicle rclavicle
    lowerneck upperneck
    upperneck head
    lclavicle lhumerus
    lhumerus lradius
    lradius lwrist
    lwrist lhand lthumb
    lhand lfingers
    rclavicle rhumerus
    rhumerus rradius
    rradius rwrist
    rwrist rhand rthumb
    rhand rfingers
  end

#!OML:ASF G:\JayActor3\Patient Classification 1\Patient 1\Session 5\male.ASF
:FULLY-SPECIFIED
:DEGREES
85
root 48.1456 16.2924 -4.18792 -138.469 85.5359 -135.595
lowerback -0.329021 -0.258039 3.18807
upperback 3.80667 -0.370573 -0.102278
thorax 4.08727 -0.0511704 -1.90424
lowerneck -3.66978 0.641112 2.23502
upperneck -2.21956 0.831303 1.44412
head -0.0743581 0.422117 0.0821662
rclavicle -5.73991e-015 -2.78299e-015
rhumerus -31.1538 -14.099 -85.0352
rradius 25.8367
rwrist 4.98906
rhand -20.7299 -9.78355
rfingers 7.12502
rthumb 5.63511 -39.6886
lclavicle -5.73991e-015 -2.78299e-015
lhumerus -26.4828 14.9058 81.7745
lradius 20.5718
lwrist 13.9786
lhand -18.2775 12.9526
lfingers 7.12502
lthumb 8.0025 42.7811
rfemur -4.76903 0.0883223 24.3
rtibia 32.5263
rfoot -25.39 -13.4083
rtoes 8.28134
lfemur 5.77735 3.27767 -14.8661
ltibia 14.5621
lfoot -14.6326 5.37523
ltoes -8.17305
86
root 48.1462 16.2924 -4.18835 -138.291 85.5439 -135.419
lowerback -0.311608 -0.257602 3.19371
upperback 3.80925 -0.369309 -0.104186
thorax 4.08014 -0.0503287 -1.90923
lowerneck -3.66279 0.6407 2.2346
upperneck -2.22436 0.831199 1.4513
head -0.076969 0.422014 0.0843551
rclavicle 5.46658e-016 4.77083e-015
rhumerus -31.1645 -14.1035 -85.0367
rradius 25.8364
rwrist 5.00122
rhand -20.7286 -9.78567
rfingers 7.12502
rthumb 5.63638 -39.6907
lclavicle 5.46658e-016 4.77083e-015
lhumerus -26.4783 14.8859 81.7989
lradius 20.5959
lwrist 14.0147
lhand -18.2709 12.9543
lfingers 7.12502
lthumb 8.00884 42.7825
rfemur -4.77183 0.0994021 24.3035
rtibia 32.5277
rfoot -25.3885 -13.4039
rtoes 8.28688
lfemur 5.77538 3.27857 -14.864
ltibia 14.5694
lfoot -14.6417 5.38412
ltoes -8.1568
87
root 48.1467 16.2922 -4.18886 -138.084 85.5532 -135.211
lowerback -0.290063 -0.257013 3.20218
upperback 3.813 -0.367708 -0.106483
thorax 4.07189 -0.0491957 -1.91617
lowerneck -3.66112 0.640942 2.23313
upperneck -2.21947 0.831555 1.45843
head -0.0758003 0.422259 0.0867365
rclavicle 3.85145e-015 -1.98785e-015
rhumerus -31.1755 -14.1084 -85.0389
rradius 25.8379
rwrist 5.01029
rhand -20.7305 -9.78394
rfingers 7.12502
rthumb 5.63453 -39.689
lclavicle 3.85145e-015 -1.98785e-015
lhumerus -26.4738 14.8697 81.8208
lradius 20.6186
lwrist 14.0457
lhand -18.2681 12.952
lfingers 7.12502
lthumb 8.01154 42.7802
rfemur -4.77181 0.110454 24.3071
rtibia 32.5292
rfoot -25.3862 -13.397
rtoes 8.28996
lfemur 5.77601 3.27987 -14.8615
ltibia 14.5791
lfoot -14.6532 5.39651
ltoes -8.15106
88
root 48.1473 16.2919 -4.18947 -137.914 85.565 -135.039
lowerback -0.262576 -0.256731 3.20792
upperback 3.81593 -0.366148 -0.110587
thorax 4.0594 -0.0482212 -1.92342
lowerneck -3.6662 0.643143 2.23337
upperneck -2.20105 0.833839 1.46356
head -0.0694433 0.423603 0.0883059
rclavicle -2.73329e-015 -4.77083e-015
rhumerus -31.1867 -14.1118 -85.0416
rradius 25.8354
rwrist 5.01149
rhand -20.7334 -9.77564
rfingers 7.12502
rthumb 5.63177 -39.6808
lclavicle -2.73329e-015 -4.77083e-015
lhumerus -26.4723 14.8567 81.8387
lradius 20.6408
lwrist 14.0724
lhand -18.2667 12.9403
lfingers 7.12502
lthumb 8.01289 42.7684
rfemur -4.76975 0.118143 24.305
rtibia 32.5325
rfoot -25.3849 -13.3843
rtoes 8.29583
lfemur 5.77843 3.2835 -14.8632
ltibia 14.5898
lfoot -14.6652 5.40744
ltoes -8.16119
89
root 48.1476 16.2916 -4.18993 -137.745 85.5746 -134.87
lowerback -0.233648 -0.257797 3.21368
upperback 3.81775 -0.366338 -0.114546
thorax 4.04485 -0.0481786 -1.93058
lowerneck -3.68017 0.647846 2.23222
upperneck -2.16773 0.838826 1.46985
head -0.0571581 0.426496 0.0905245
rclavicle -6.88292e-015 1.98785e-015
rhumerus -31.1968 -14.1146 -85.0457
rradius 25.8324
rwrist 5.00842
rhand -20.7365 -9.76228
rfingers 7.12502
rthumb 5.62873 -39.6675
lclavicle -6.88292e-015 1.98785e-015
lhumerus -26.4699 14.8489 81.8524
lradius 20.662
lwrist 14.0933
lhand -18.2641 12.9353
lfingers 7.12502
lthumb 8.01545 42.7633
rfemur -4.77246 0.126458 24.3054
rtibia 32.5375
rfoot -25.3855 -13.3718
rtoes 8.30615
lfemur 5.7752 3.2942 -14.8613
ltibia 14.6021
lfoot -14.676 5.41238
ltoes -8.18389
90
root 48.1476 16.2911 -4.19057 -137.578 85.5867 -134.703
lowerback -0.197052 -0.259574 3.22006
upperback 3.8173 -0.367138 -0.120104
thorax 4.02353 -0.04854 -1.93971
lowerneck -3.69924 0.653822 2.22755
upperneck -2.11996 0.845087 1.48028
head -0.0397078 0.430217 0.0946081
rclavicle 2.78299e-015 -1.98785e-015
rhumerus -31.2095 -14.1119 -85.0517
rradius 25.8303
rwrist 4.99542
rhand -20.7355 -9.75792
rfingers 7.12502
rthumb 5.62972 -39.6631
lclavicle 2.78299e-015 -1.98785e-015
lhumerus -26.4692 14.8507 81.8593
lradius 20.6795
lwrist 14.1072
lhand -18.2614 12.9309
lfingers 7.12502
lthumb 8.01807 42.7588
rfemur -4.77775 0.130893 24.3016
rtibia 32.5456
rfoot -25.385 -13.3541
rtoes 8.31193
lfemur 5.77184 3.30935 -14.8617
ltibia 14.6146
lfoot -14.6869 5.41698
ltoes -8.22069
91
root 48.1474 16.2907 -4.19126 -137.429 85.5992 -134.559
lowerback -0.159042 -0.262796 3.22654
upperback 3.81626 -0.369773 -0.127022
thorax 4.0007 -0.0498272 -1.95036
lowerneck -3.7257 0.6606 2.21794
upperneck -2.06048 0.852091 1.49534
head -0.017549 0.434511 0.100936
rclavicle 2.70844e-015 -4.77083e-015
rhumerus -31.2183 -14.1069 -85.0604
rradius 25.8262
rwrist 4.97973
rhand -20.7354 -9.75215
rfingers 7.12502
rthumb 5.62981 -39.6574
lclavicle 2.70844e-015 -4.77083e-015
lhumerus -26.4655 14.8565 81.8621
lradius 20.6951
lwrist 14.1215
lhand -18.256 12.925
lfingers 7.12502
lthumb 8.02326 42.7527
rfemur -4.78969 0.130974 24.2947
rtibia 32.556
rfoot -25.382 -13.3334
rtoes 8.31767
lfemur 5.76068 3.3311 -14.8624
ltibia 14.6308
lfoot -14.6983 5.41446
ltoes -8.26387
92
root 48.1467 16.2903 -4.19213 -137.327 85.6151 -134.464
lowerback -0.116985 -0.266461 3.232
upperback 3.817 -0.372682 -0.137255
thorax 3.97738 -0.0511863 -1.96385
lowerneck -3.75016 0.661483 2.20901
upperneck -2.00673 0.851403 1.50807
head 0.00256758 0.434884 0.106363
rclavicle -1.59028e-015 -3.97569e-016
rhumerus -31.2209 -14.1064 -85.0712
rradius 25.8224
rwrist 4.97058
rhand -20.7316 -9.74718
rfingers 7.12502
rthumb 5.63345 -39.6523
lclavicle -1.59028e-015 -3.97569e-016
lhumerus -26.4545 14.8667 81.8611
lradius 20.7094
lwrist 14.1366
lhand -18.2535 12.9244
lfingers 7.12502
lthumb 8.02571 42.7521
rfemur -4.80708 0.124327 24.2794
rtibia 32.5697
rfoot -25.3765 -13.3058
rtoes 8.32072
lfemur 5.74364 3.3572 -14.8685
ltibia 14.6515
lfoot -14.7112 5.40475
ltoes -8.28869
93
root 48.1455 16.2899 -4.19295 -137.119 85.6303 -134.267
lowerback -0.072678 -0.268309 3.24553
upperback 3.81861 -0.373247 -0.147003
thorax 3.95384 -0.0510907 -1.98126
lowerneck -3.77225 0.655175 2.19823
upperneck -1.95894 0.841415 1.51978
head 0.0204857 0.430544 0.111665
rclavicle -4.84538e-015 3.97569e-015
rhumerus -31.2186 -14.1068 -85.0842
rradius 25.8207
rwrist 4.96246
rhand -20.7332 -9.74298
rfingers 7.12502
rthumb 5.63194 -39.6481
lclavicle -4.84538e-015 3.97569e-015
lhumerus -26.4387 14.8753 81.8593
lradius 20.7269
lwrist 14.1574
lhand -18.2536 12.9223
lfingers 7.12502
lthumb 8.02555 42.7499
rfemur -4.83412 0.126201 24.272
rtibia 32.5858
rfoot -25.3707 -13.2816
rtoes 8.31995
lfemur 5.71499 3.38907 -14.8664
ltibia 14.6803
lfoot -14.7282 5.38891
ltoes -8.29729
94
root 48.1438 16.2895 -4.19373 -136.912 85.6467 -134.074
lowerback -0.0245398 -0.269848 3.25978
upperback 3.82402 -0.37315 -0.158382
thorax 3.93211 -0.0504833 -2.00073
lowerneck -3.79606 0.644887 2.18847
upperneck -1.91926 0.826276 1.52847
head 0.0362475 0.423557 0.115831
rclavicle 6.31141e-015 -1.19271e-015
rhumerus -31.2036 -14.1106 -85.0995
rradius 25.8175
rwrist 4.96165
rhand -20.7322 -9.74321
rfingers 7.12502
rthumb 5.63288 -39.6483
lclavicle 6.31141e-015 -1.19271e-015
lhumerus -26.4161 14.8816 81.8575
lradius 20.7505
lwrist 14.1847
lhand -18.2614 12.9148
lfingers 7.12502
lthumb 8.0181 42.7427
rfemur -4.86804 0.135023 24.2646
rtibia 32.6059
rfoot -25.369 -13.2583
rtoes 8.32816
lfemur 5.67568 3.42578 -14.864
ltibia 14.7194
lfoot -14.7481 5.36508
ltoes -8.29621
95
root 48.1413 16.289 -4.19445 -136.652 85.6629 -133.832
lowerback 0.0274815 -0.270997 3.27827
upperback 3.83286 -0.372391 -0.170223
thorax 3.91179 -0.0492793 -2.02301
lowerneck -3.82238 0.632986 2.17948
upperneck -1.88561 0.809097 1.53631
head 0.0506051 0.415518 0.11959
rclavicle 9.61621e-015 -1.59028e-015
rhumerus -31.1808 -14.1138 -85.1195
rradius 25.8199
rwrist 4.96306
rhand -20.7349 -9.74794
rfingers 7.12502
rthumb 5.63028 -39.6531
lclavicle 9.61621e-015 -1.59028e-015
lhumerus -26.3877 14.8838 81.8559
lradius 20.7826
lwrist 14.2199
lhand -18.2732 12.9152
lfingers 7.12502
lthumb 8.00664 42.7435
rfemur -4.91098 0.154801 24.2623
rtibia 32.6294
rfoot -25.37 -13.2417
rtoes 8.33789
lfemur 5.621 3.46765 -14.8571
ltibia 14.774
lfoot -14.7744 5.33479
ltoes -8.28388
